#!OML:ASF X:\für Bonn\!DataBase\2005_08_10_Bjorn_Final\c3d\bjorn.ASF
:FULLY-SPECIFIED
:DEGREES
122
root -21.4519 19.4448 0.215208 -258.631 -89.0187 -96.8169
lowerback -13.4139 5.97002 -3.75171
upperback 3.43929 9.24942 -6.82162
thorax 11.9161 4.34145 -3.21406
lowerneck -4.4217 -7.65795 5.34137
upperneck 16.2706 -11.2886 0.631872
head 5.39439 -5.25398 -1.3187
rclavicle -3.97569e-016 2.54444e-014
rhumerus 34.5759 3.19412 -43.7781
rradius 64.9349
rwrist -30.7992
rhand -5.19025 9.04068
rfingers 7.12502
rthumb 20.6106 -19.8851
lclavicle -3.97569e-016 2.54444e-014
lhumerus -26.8879 34.6233 65.8605
lradius 11.48
lwrist -60.4782
lhand -15.3879 -5.66151
lfingers 7.12502
lthumb 10.7906 24.0413
rfemur -12.212 -14.0858 17.6033
rtibia 24.9035
rfoot -8.73669 19.7948
rtoes 3.67861
lfemur -11.3912 14.6895 -16.3647
ltibia 24.5523
lfoot -9.92564 -15.4674
ltoes -0.148745
123
root -21.4526 19.4447 0.217385 -255.859 -89.025 -99.5946
lowerback -13.4085 5.92584 -3.71748
upperback 3.45343 9.18131 -6.76571
thorax 11.9199 4.31001 -3.1876
lowerneck -4.40029 -7.61782 5.3286
upperneck 16.5274 -11.2663 0.699933
head 5.4771 -5.23427 -1.30292
rclavicle 1.53859e-013 -9.54166e-014
rhumerus 33.7162 2.56529 -44.8351
rradius 66.4163
rwrist -30.818
rhand -5.54372 9.22844
rfingers 7.12502
rthumb 20.2709 -19.7338
lclavicle 1.53859e-013 -9.54166e-014
lhumerus -27.0305 34.5432 65.844
lradius 11.4877
lwrist -60.3729
lhand -15.3501 -5.58339
lfingers 7.12502
lthumb 10.8271 24.1175
rfemur -12.2031 -14.0334 17.5779
rtibia 24.8944
rfoot -8.7317 19.7878
rtoes 3.68009
lfemur -11.3744 14.721 -16.386
ltibia 24.5517
lfoot -9.9327 -15.4684
ltoes -0.122462
124
root -21.4526 19.4448 0.219955 -253.724 -89.0175 -101.73
lowerback -13.4039 5.88585 -3.65803
upperback 3.46619 9.11503 -6.71287
thorax 11.9276 4.28154 -3.17775
lowerneck -4.37347 -7.57723 5.34608
upperneck 16.7641 -11.2437 0.760005
head 5.55063 -5.21387 -1.2931
rclavicle 3.57812e-015 3.49861e-014
rhumerus 32.7898 1.94759 -45.8252
rradius 68.0285
rwrist -30.9367
rhand -5.96383 9.29777
rfingers 7.12502
rthumb 19.8671 -19.7068
lclavicle 3.57812e-015 3.49861e-014
lhumerus -27.1375 34.3752 65.8667
lradius 11.4941
lwrist -60.2081
lhand -15.3267 -5.50937
lfingers 7.12502
lthumb 10.8497 24.1904
rfemur -12.2038 -13.9884 17.5692
rtibia 24.8886
rfoot -8.71334 19.777
rtoes 3.77367
lfemur -11.3657 14.7453 -16.3914
ltibia 24.5469
lfoot -9.91206 -15.483
ltoes 0.024741
125
root -21.4533 19.445 0.222155 -250.402 -89.0025 -105.044
lowerback -13.3986 5.85229 -3.59675
upperback 3.46711 9.05636 -6.66737
thorax 11.9233 4.2573 -3.17548
lowerneck -4.35721 -7.54111 5.36948
upperneck 17.0225 -11.2294 0.811075
head 5.63188 -5.19704 -1.28848
rclavicle 1.03368e-014 3.49861e-014
rhumerus 31.7865 1.36361 -46.7574
rradius 69.7739
rwrist -31.1083
rhand -6.45304 9.23
rfingers 7.12502
rthumb 19.3968 -19.8226
lclavicle 1.03368e-014 3.49861e-014
lhumerus -27.2598 34.2695 65.8446
lradius 11.498
lwrist -60.0799
lhand -15.2664 -5.47593
lfingers 7.12502
lthumb 10.9078 24.2207
rfemur -12.2139 -13.9419 17.563
rtibia 24.8831
rfoot -8.71594 19.7901
rtoes 3.77635
lfemur -11.3594 14.7921 -16.3965
ltibia 24.5413
lfoot -9.89376 -15.4986
ltoes 0.16
126
root -21.4542 19.4448 0.224362 -246.854 -88.9968 -108.598
lowerback -13.3886 5.81833 -3.54966
upperback 3.47801 8.99969 -6.61843
thorax 11.9248 4.23264 -3.16147
lowerneck -4.31124 -7.50135 5.39097
upperneck 17.2479 -11.205 0.857309
head 5.69779 -5.17701 -1.28196
rclavicle 4.69132e-014 -1.90833e-014
rhumerus 30.7604 0.785938 -47.6179
rradius 71.5743
rwrist -31.342
rhand -6.94105 9.08475
rfingers 7.12502
rthumb 18.9275 -20.0143
lclavicle 4.69132e-014 -1.90833e-014
lhumerus -27.3944 34.1726 65.8335
lradius 11.5191
lwrist -60.0099
lhand -15.2486 -5.47428
lfingers 7.12502
lthumb 10.925 24.2215
rfemur -12.2038 -13.8905 17.5361
rtibia 24.8786
rfoot -8.71091 19.8005
rtoes 3.78436
lfemur -11.3399 14.8384 -16.4142
ltibia 24.5356
lfoot -9.87915 -15.5112
ltoes 0.256511
127
root -21.4548 19.445 0.226317 -244.119 -88.9802 -111.325
lowerback -13.3978 5.76286 -3.51055
upperback 3.4932 8.91556 -6.54537
thorax 11.9355 4.19318 -3.12134
lowerneck -4.28615 -7.44883 5.38477
upperneck 17.4742 -11.16 0.891851
head 5.76868 -5.14874 -1.27466
rclavicle 7.79236e-014 -1.1609e-013
rhumerus 29.7411 0.282351 -48.404
rradius 73.4412
rwrist -31.5984
rhand -7.52963 8.83376
rfingers 7.12502
rthumb 18.3614 -20.3197
lclavicle 7.79236e-014 -1.1609e-013
lhumerus -27.4968 33.9124 65.9326
lradius 11.5519
lwrist -59.6675
lhand -15.2495 -5.46206
lfingers 7.12502
lthumb 10.9241 24.2338
rfemur -12.2178 -13.8845 17.5289
rtibia 24.8769
rfoot -8.67024 19.8404
rtoes 3.90509
lfemur -11.3346 14.8776 -16.4238
ltibia 24.5271
lfoot -9.88007 -15.5128
ltoes 0.283166
128
root -21.456 19.4449 0.227766 -240.73 -88.9516 -114.715
lowerback -13.3958 5.7189 -3.4688
upperback 3.50665 8.84573 -6.47798
thorax 11.9398 4.16109 -3.08654
lowerneck -4.27797 -7.39324 5.41333
upperneck 17.7186 -11.1138 0.906948
head 5.8453 -5.11853 -1.2798
rclavicle 9.93923e-014 -1.54257e-013
rhumerus 28.7223 -0.208791 -49.1399
rradius 75.2944
rwrist -31.8699
rhand -8.11536 8.51985
rfingers 7.12502
rthumb 17.7978 -20.6857
lclavicle 9.93923e-014 -1.54257e-013
lhumerus -27.5865 33.6225 66.036
lradius 11.5885
lwrist -59.2951
lhand -15.2349 -5.51967
lfingers 7.12502
lthumb 10.9382 24.1754
rfemur -12.2255 -13.9016 17.5251
rtibia 24.8768
rfoot -8.66823 19.9135
rtoes 3.82347
lfemur -11.3152 14.9314 -16.4236
ltibia 24.5173
lfoot -9.86042 -15.5278
ltoes 0.435302
129
root -21.4565 19.445 0.229836 -237.048 -88.9478 -118.387
lowerback -13.3883 5.66193 -3.45051
upperback 3.5088 8.76099 -6.41599
thorax 11.9245 4.12067 -3.04917
lowerneck -4.25039 -7.33473 5.41984
upperneck 17.9664 -11.0603 0.918273
head 5.92082 -5.08669 -1.28148
rclavicle -6.91771e-014 3.97569e-014
rhumerus 27.7235 -0.684251 -49.9187
rradius 77.1075
rwrist -32.1078
rhand -8.61903 8.20188
rfingers 7.12502
rthumb 17.3131 -21.047
lclavicle -6.91771e-014 3.97569e-014
lhumerus -27.7397 33.4873 66.0611
lradius 11.6247
lwrist -59.0943
lhand -15.2417 -5.55938
lfingers 7.12502
lthumb 10.9316 24.136
rfemur -12.2346 -13.8509 17.4873
rtibia 24.874
rfoot -8.64723 19.9201
rtoes 3.94322
lfemur -11.3095 14.9775 -16.4603
ltibia 24.5107
lfoot -9.83221 -15.5389
ltoes 0.616734
130
root -21.4576 19.4452 0.231431 -233.973 -88.9146 -121.455
lowerback -13.3965 5.60428 -3.40987
upperback 3.52192 8.67307 -6.3409
thorax 11.9321 4.07952 -3.00876
lowerneck -4.19021 -7.27816 5.42046
upperneck 18.1683 -11.0033 0.931363
head 5.9768 -5.0552 -1.27847
rclavicle -7.95139e-015 3.65764e-014
rhumerus 26.7569 -1.19823 -50.7377
rradius 78.8743
rwrist -32.3673
rhand -8.98581 7.90325
rfingers 7.12502
rthumb 16.9601 -21.3763
lclavicle -7.95139e-015 3.65764e-014
lhumerus -27.8326 33.211 66.1778
lradius 11.6598
lwrist -58.7142
lhand -15.2578 -5.58367
lfingers 7.12502
lthumb 10.9161 24.1126
rfemur -12.2484 -13.8524 17.481
rtibia 24.8699
rfoot -8.61074 19.9828
rtoes 4.06865
lfemur -11.3001 15.0305 -16.4639
ltibia 24.5029
lfoot -9.80631 -15.5693
ltoes 0.805089
131
root -21.4586 19.4447 0.233022 -231.088 -88.8784 -124.332
lowerback -13.4065 5.5244 -3.38508
upperback 3.54159 8.55696 -6.24677
thorax 11.9412 4.02304 -2.94526
lowerneck -4.13968 -7.20476 5.40777
upperneck 18.3612 -10.9192 0.929232
head 6.03183 -5.01242 -1.2767
rclavicle -9.93923e-015 -4.6118e-014
rhumerus 25.851 -1.6706 -51.5823
rradius 80.6056
rwrist -32.6024
rhand -9.29273 7.63945
rfingers 7.12502
rthumb 16.6646 -21.6652
lclavicle -9.93923e-015 -4.6118e-014
lhumerus -27.9324 32.8883 66.3482
lradius 11.7353
lwrist -58.249
lhand -15.2769 -5.59336
lfingers 7.12502
lthumb 10.8977 24.1038
rfemur -12.2616 -13.8416 17.4751
rtibia 24.8666
rfoot -8.57275 20.0388
rtoes 4.14335
lfemur -11.2949 15.0836 -16.4682
ltibia 24.4948
lfoot -9.79838 -15.5848
ltoes 0.856722
132
root -21.4601 19.4448 0.234337 -228.428 -88.838 -126.984
lowerback -13.4154 5.45404 -3.34578
upperback 3.55762 8.45192 -6.16674
thorax 11.9511 3.97347 -2.90274
lowerneck -4.07346 -7.13842 5.42206
upperneck 18.5388 -10.8438 0.918535
head 6.07733 -4.97366 -1.28088
rclavicle 5.36719e-014 -2.70347e-014
rhumerus 24.9031 -2.17266 -52.4387
rradius 82.3266
rwrist -32.7968
rhand -9.54954 7.44597
rfingers 7.12502
rthumb 16.4174 -21.8793
lclavicle 5.36719e-014 -2.70347e-014
lhumerus -28.0166 32.5219 66.5211
lradius 11.814
lwrist -57.7793
lhand -15.2568 -5.57923
lfingers 7.12502
lthumb 10.917 24.117
rfemur -12.2715 -13.789 17.4716
rtibia 24.862
rfoot -8.56289 20.0501
rtoes 4.23978
lfemur -11.2847 15.1373 -16.4732
ltibia 24.4875
lfoot -9.79318 -15.5842
ltoes 0.919272
133
root -21.461 19.4447 0.236325 -225.696 -88.811 -129.722
lowerback -13.4035 5.38023 -3.30221
upperback 3.58506 8.34124 -6.09204
thorax 11.9631 3.92185 -2.87133
lowerneck -4.05154 -7.06824 5.39283
upperneck 18.7474 -10.7689 0.93433
head 6.14415 -4.93436 -1.27334
rclavicle -9.62118e-014 5.88403e-014
rhumerus 23.9739 -2.63055 -53.2297
rradius 84.0195
rwrist -32.967
rhand -9.85983 7.34096
rfingers 7.12502
rthumb 16.1186 -22.0087
lclavicle -9.62118e-014 5.88403e-014
lhumerus -28.0677 32.104 66.7465
lradius 11.9094
lwrist -57.2358
lhand -15.2366 -5.56994
lfingers 7.12502
lthumb 10.9365 24.1252
rfemur -12.2731 -13.8187 17.448
rtibia 24.8634
rfoot -8.54269 20.1277
rtoes 4.1761
lfemur -11.2594 15.1827 -16.4898
ltibia 24.4767
lfoot -9.76721 -15.6136
ltoes 1.10785
134
root -21.4623 19.4448 0.236922 -223.319 -88.7686 -132.09
lowerback -13.407 5.30534 -3.25258
upperback 3.60968 8.229 -6.01709
thorax 11.982 3.86974 -2.84214
lowerneck -4.04628 -6.98785 5.38254
upperneck 18.9504 -10.6818 0.94473
head 6.21115 -4.88816 -1.27017
rclavicle 7.15625e-015 1.11319e-014
rhumerus 23.0033 -3.06055 -53.9681
rradius 85.7387
rwrist -33.0413
rhand -10.2218 7.18336
rfingers 7.12502
rthumb 15.7701 -22.1942
lclavicle 7.15625e-015 1.11319e-014
lhumerus -28.1042 31.6442 66.9844
lradius 12.0056
lwrist -56.6622
lhand -15.2125 -5.50736
lfingers 7.12502
lthumb 10.9598 24.1866
rfemur -12.285 -13.7769 17.4442
rtibia 24.8671
rfoot -8.52094 20.1483
rtoes 4.28477
lfemur -11.2504 15.2364 -16.4918
ltibia 24.4611
lfoot -9.74744 -15.6449
ltoes 1.19961
135
root -21.4636 19.4444 0.238253 -220.18 -88.7203 -135.215
lowerback -13.4224 5.22008 -3.22215
upperback 3.63541 8.10572 -5.92795
thorax 12.0037 3.81024 -2.78851
lowerneck -4.02889 -6.89995 5.34892
upperneck 19.1424 -10.5753 0.930153
head 6.27247 -4.83644 -1.26894
rclavicle -5.96354e-015 -3.02153e-014
rhumerus 22.0551 -3.41109 -54.6055
rradius 87.4324
rwrist -33.0862
rhand -10.643 7.00555
rfingers 7.12502
rthumb 15.3643 -22.4036
lclavicle -5.96354e-015 -3.02153e-014
lhumerus -28.1751 31.2299 67.2237
lradius 12.1133
lwrist -56.0512
lhand -15.1921 -5.50818
lfingers 7.12502
lthumb 10.9795 24.1847
rfemur -12.3143 -13.7162 17.4263
rtibia 24.8749
rfoot -8.50929 20.1667
rtoes 4.38531
lfemur -11.2433 15.3058 -16.5125
ltibia 24.443
lfoot -9.71933 -15.662
ltoes 1.35749
136
root -21.4648 19.4445 0.239232 -218.149 -88.6728 -137.237
lowerback -13.4373 5.13904 -3.16378
upperback 3.6776 7.98563 -5.84933
thorax 12.0502 3.75442 -2.76085
lowerneck -4.04861 -6.81081 5.3228
upperneck 19.3314 -10.4734 0.935491
head 6.34009 -4.78435 -1.26448
rclavicle -1.27222e-014 4.29375e-014
rhumerus 21.1324 -3.77399 -55.1986
rradius 89.0561
rwrist -33.1512
rhand -11.0217 6.89016
rfingers 7.12502
rthumb 14.9996 -22.5466
lclavicle -1.27222e-014 4.29375e-014
lhumerus -28.1921 30.8839 67.4391
lradius 12.1922
lwrist -55.553
lhand -15.1769 -5.47774
lfingers 7.12502
lthumb 10.9941 24.2144
rfemur -12.3323 -13.6939 17.4225
rtibia 24.8803
rfoot -8.48805 20.2094
rtoes 4.41878
lfemur -11.2291 15.3597 -16.5142
ltibia 24.4245
lfoot -9.69053 -15.6911
ltoes 1.50058
